<?xml version="1.0" encoding="utf-8"?>
<!-- Generator: $$$/GeneralStr/196=Adobe Illustrator 27.6.0, SVG Export Plug-In . SVG Version: 6.00 Build 0)  -->
<svg version="1.1" id="Calque_1" xmlns="http://www.w3.org/2000/svg" xmlns:xlink="http://www.w3.org/1999/xlink" x="0px" y="0px"
	 viewBox="0 0 559.8 129.1" style="enable-background:new 0 0 559.8 129.1;" xml:space="preserve">
<style type="text/css">
	.st0{fill:#1A3358;}
</style>
<g>
	<g>
		<g>
			<path class="st0" d="M47.4,31.8l19.4-13.5c3.1-2.2,3.9-6.5,1.7-9.6c-2.2-3.1-6.5-3.9-9.6-1.7L39.5,20.4c-3.1,2.2-3.9,6.5-1.7,9.6
				C39.9,33.2,44.3,34,47.4,31.8z"/>
			<path class="st0" d="M53.2,42.8c-18.6,0-34.9,12.8-39.3,30.9c-4.4,18.1,4.2,36.9,20.7,45.4c5.9,3,12.2,4.5,18.5,4.5h0h0
				c0,0,0,0,0,0c3.8,0,6.9-3.1,6.9-6.9c0-3.8-3.1-6.9-6.9-6.9l0,0c-2,0-4-0.2-5.9-0.7c-9.6-2.2-17.1-9.5-19.7-19h59.1
				c3.8,0,6.9-3.1,6.9-6.9C93.6,60.9,75.5,42.8,53.2,42.8z M27.5,76.3c3.1-11.6,13.6-19.6,25.6-19.6c12,0,22.5,8.1,25.6,19.6H27.5z"
				/>
		</g>
		<g>
			<path class="st0" d="M501.4,31.8l19.4-13.5c3.1-2.2,3.9-6.5,1.7-9.6c-2.2-3.1-6.5-3.9-9.6-1.7l-19.4,13.5
				c-3.1,2.2-3.9,6.5-1.7,9.6C494,33.2,498.3,34,501.4,31.8z"/>
			<path class="st0" d="M507.2,42.8c-18.6,0-34.9,12.8-39.3,30.9c-4.4,18.1,4.2,36.9,20.7,45.4c5.9,3,12.2,4.5,18.5,4.5h0h0
				c0,0,0,0,0,0c3.8,0,6.9-3.1,6.9-6.9c0-3.8-3.1-6.9-6.9-6.9l0,0c-2,0-4-0.2-5.9-0.7c-9.6-2.2-17.1-9.5-19.7-19h59.1
				c3.8,0,6.9-3.1,6.9-6.9C547.6,60.9,529.5,42.8,507.2,42.8z M481.6,76.3c3.1-11.6,13.6-19.6,25.6-19.6c12,0,22.5,8.1,25.6,19.6
				H481.6z"/>
		</g>
		<path class="st0" d="M160,100.5c2.5-2.9,6.9-3.2,9.8-0.7c1.4,1.2,2.3,2.9,2.4,4.7c0.1,1.8-0.5,3.6-1.7,5
			c-7.7,9-18.9,14.1-30.7,14.1c-22.3,0-40.4-18.1-40.4-40.4c0-22.3,18.1-40.4,40.4-40.4c11.8,0,23,5.1,30.7,14.1
			c1.2,1.4,1.8,3.2,1.7,5c-0.1,1.8-1,3.5-2.4,4.7c-2.9,2.5-7.3,2.2-9.8-0.7c-5-5.9-12.4-9.3-20.1-9.3c-14.7,0-26.5,11.9-26.6,26.6
			c0,14.7,11.9,26.5,26.6,26.6C147.6,109.8,155,106.4,160,100.5L160,100.5z"/>
		<path class="st0" d="M178.7,83.2c0-22.3,18.1-40.4,40.4-40.4c22.3,0,40.4,18.1,40.4,40.4c0,22.3-18.1,40.4-40.4,40.4
			C196.8,123.6,178.7,105.5,178.7,83.2z M245.6,83.2c0-14.7-11.9-26.5-26.6-26.6c-14.7,0-26.5,11.9-26.6,26.6
			c0,14.7,11.9,26.5,26.6,26.6C233.8,109.8,245.6,97.9,245.6,83.2z"/>
		<path class="st0" d="M277.6,34.3c0-6.7,2.7-13.2,7.4-18c4.8-4.8,11.2-7.4,18-7.4h5.9c3.8,0,6.9,3.1,6.9,6.9s-3.1,6.9-6.9,6.9H303
			c-3.1,0-6,1.2-8.2,3.4c-2.2,2.2-3.4,5.1-3.4,8.2v8.5h16.8c3.8,0,6.9,3.1,6.9,6.9s-3.1,6.9-6.9,6.9h-16.8v60c0,3.8-3.1,6.9-6.9,6.9
			c-3.8,0-6.9-3.1-6.9-6.9v-60h-9.2c-3.8,0-6.9-3.1-6.9-6.9s3.1-6.9,6.9-6.9h9.2V34.3z"/>
		<path class="st0" d="M399.6,42.8c3.8,0,6.9,3.1,6.9,6.9v33.5c0,22.3-18.1,40.4-40.4,40.4c-22.3,0-40.4-18.1-40.4-40.4V49.7
			c0-3.8,3.1-6.9,6.9-6.9c3.8,0,6.9,3.1,6.9,6.9v33.5c0,14.7,11.9,26.5,26.6,26.6c14.7,0,26.5-11.9,26.6-26.6V49.7
			C392.6,45.9,395.7,42.8,399.6,42.8z"/>
		<path class="st0" d="M429,15.1c0-3.8,3.1-6.9,6.9-6.9c3.8,0,6.9,3.1,6.9,6.9v27.7h16.9c3.8,0,6.9,3.1,6.9,6.9s-3.1,6.9-6.9,6.9
			h-16.9v40.8c0,6.4,5.2,11.5,11.5,11.5h4.3c3.8,0,6.9,3.1,6.9,6.9c0,3.8-3.1,6.9-6.9,6.9h-4.3c-14,0-25.4-11.4-25.4-25.4V56.7h-8.7
			c-3.8,0-6.9-3.1-6.9-6.9s3.1-6.9,6.9-6.9h8.7V15.1z"/>
	</g>
</g>
</svg>
